<svg t="1781076756706" class="icon" viewBox="0 0 1024 1024" version="1.1" xmlns="http://www.w3.org/2000/svg" p-id="2096" width="200" height="200"><path d="M190.464 850.944c20.48-16.896 23.552-47.104 6.656-67.072-51.2-59.904-86.016-134.144-97.28-216.064-4.096-40.96-4.096-78.848 0.512-111.104 24.064-182.784 169.984-330.24 352.768-355.84 43.52-5.632 70.144-6.656 111.104-1.024 186.88 23.552 334.848 170.496 359.424 357.376 6.144 33.28 4.608 71.168-0.512 111.104-24.576 185.344-173.568 333.312-359.936 357.376-18.944 2.048-42.496 3.584-65.536 4.096-26.112 0.512-46.592 22.016-46.08 47.616 0.512 25.088 20.992 45.568 46.592 45.568 20.48 0 41.984-1.024 64-2.56 238.592-24.576 429.568-215.04 455.168-453.12 3.072-38.4 3.584-74.752 1.024-109.568-25.6-239.104-216.576-428.544-455.168-453.12-33.28-3.584-70.144-3.072-109.568 0.512C219.136 31.744 30.72 221.184 5.12 457.216c-3.072 31.744-3.072 69.12-1.024 109.568 11.264 105.984 55.296 202.24 121.344 278.528 16.384 19.456 45.568 21.504 65.024 5.632z m676.864-401.408c-38.912-14.336-83.968-32.768-83.968-32.768l-70.656-184.832c-36.864-67.584-102.4-67.584-147.456-33.28-23.552 17.92-41.984 33.792-59.904 33.28-18.944-0.512-33.792-15.36-55.808-33.28-43.008-34.304-113.664-34.304-140.288 35.84-17.92 46.592-40.448 107.52-68.608 181.76 0 0-43.52 17.408-81.408 31.744-28.672 10.752-47.104 37.888-47.104 68.096 0 35.84 26.112 66.56 61.44 72.192 35.328 5.632 74.752 11.776 95.744 14.848 5.632 75.264 22.016 167.936 65.024 187.392 52.224 24.576 138.24-71.68 171.008-71.68 33.28 0 59.904 32.768 97.792 55.808 95.232 65.536 130.56-42.496 141.824-168.96 24.576-3.584 70.656-11.264 110.08-17.92 34.304-5.632 59.392-35.328 59.904-70.144-0.512-30.208-18.944-57.856-47.616-68.096z m-438.272 230.4c-83.456 35.84-97.792-48.128-97.28-72.192 4.096-6.656 80.896 11.264 113.664 26.624 8.192 6.144 28.16 18.944-16.384 45.568z m149.504-0.512c-36.352-21.504-29.696-32.768-17.408-43.52s107.52-33.28 111.616-26.624c2.56 10.752-8.192 106.496-94.208 70.144zM227.84 511.488c31.744-12.8 68.096-20.992 99.328-33.792C366.08 373.76 387.072 295.936 391.168 288.768c5.632-10.24 17.92-16.384 34.304-4.096s57.344 34.304 80.896 34.304c23.552 0 70.656-21.504 87.552-34.304 16.896-12.8 31.744-7.168 37.376 5.12l62.976 187.904 92.672 34.816c-208.896 39.424-354.816 33.28-559.104-1.024z" fill="#080808" p-id="2097"></path></svg>